<svg width="9" height="14" viewBox="0 0 9 14" fill="none" xmlns="http://www.w3.org/2000/svg">
<g clip-path="url(#clip0_78_137)">
<path fill-rule="evenodd" clip-rule="evenodd" d="M8.6941 0.306267C8.2861 -0.101733 7.6241 -0.101733 7.2161 0.306267L1.3031 6.20627C1.19557 6.31321 1.11273 6.44239 1.06038 6.58473C1.00804 6.72707 0.987467 6.87913 1.0001 7.03027C0.996851 7.17123 1.0223 7.31138 1.07491 7.44221C1.12751 7.57303 1.20617 7.69179 1.3061 7.79127L7.2161 13.6943C7.41221 13.89 7.67799 14 7.9551 14C8.2322 14 8.49799 13.89 8.6941 13.6943C8.79109 13.5974 8.86804 13.4824 8.92055 13.3557C8.97305 13.2291 9.00007 13.0934 9.00007 12.9563C9.00007 12.8192 8.97305 12.6834 8.92055 12.5568C8.86804 12.4302 8.79109 12.3151 8.6941 12.2183L3.4671 6.99827L8.6941 1.78027C8.79121 1.68346 8.86827 1.56845 8.92085 1.4418C8.97342 1.31516 9.00049 1.17939 9.00049 1.04227C9.00049 0.905145 8.97342 0.769371 8.92085 0.64273C8.86827 0.516088 8.79121 0.401069 8.6941 0.304267V0.306267Z" fill="#A7A59E"/>
</g>
<defs>
<clipPath id="clip0_78_137">
<rect width="9" height="14" fill="white" transform="matrix(-1 0 0 -1 9 14)"/>
</clipPath>
</defs>
</svg>
