<svg width="18" height="14" viewBox="0 0 18 14" fill="none" xmlns="http://www.w3.org/2000/svg"><path fill-rule="evenodd" clip-rule="evenodd" d="M6.509.271a.916.916 0 011.301 0 .93.93 0 010 1.31L4.67 4.74h8.662l-3.141-3.16a.93.93 0 010-1.31.916.916 0 011.301 0L15.395 4.2a.925.925 0 01.263.543h1.421c.581 0 1.017.534.903 1.107l-2.393 7.407a.922.922 0 01-.902.744H3.313a.922.922 0 01-.902-.744L.018 5.849a.924.924 0 01.903-1.107h1.421a.924.924 0 01.263-.543L6.509.271zm-2.11 6.785c0-.255.206-.463.46-.463s.46.208.46.463v4.63a.461.461 0 01-.46.462.461.461 0 01-.46-.463V7.056zm2.76 0c0-.255.207-.463.46-.463.255 0 .46.208.46.463v4.63a.461.461 0 01-.46.462.461.461 0 01-.46-.463V7.056zm3.221-.463a.462.462 0 00-.46.463v4.63c0 .255.206.462.46.462s.46-.207.46-.463V7.056a.462.462 0 00-.46-.463zm2.3.463c0-.255.207-.463.46-.463.255 0 .461.208.461.463v4.63a.461.461 0 01-.46.462.461.461 0 01-.46-.463V7.056z" fill="#241E0C"/></svg>