<svg width="20" height="19" viewBox="0 0 20 19" fill="none" xmlns="http://www.w3.org/2000/svg"><path d="M4 .042C1.79.042 0 1.68 0 3.7v2.743h2V3.7c0-1.01.895-1.829 2-1.829h12c1.105 0 2 .819 2 1.829v10.972c0 1.01-.895 1.829-2 1.829H4c-1.105 0-2-.819-2-1.829V11.93H0v2.743c0 2.02 1.79 3.657 4 3.657h12c2.21 0 4-1.637 4-3.657V3.7c0-2.02-1.79-3.658-4-3.658H4z" fill="#000"/><path d="M1 8.272c-.552 0-1 .409-1 .914 0 .505.448.914 1 .914h9.582L8.047 12.42a.86.86 0 000 1.293c.39.357 1.024.357 1.414 0l4.196-3.837A.881.881 0 0014 9.186a.881.881 0 00-.343-.69L9.46 4.66a1.067 1.067 0 00-1.414 0 .86.86 0 000 1.293l2.535 2.319H1z" fill="#000"/></svg>