<?xml version="1.0" encoding="UTF-8"?>
<!DOCTYPE svg PUBLIC "-//W3C//DTD SVG 1.1//EN" "http://www.w3.org/Graphics/SVG/1.1/DTD/svg11.dtd">
<!-- Creator: CorelDRAW 2019 (64-Bit) -->
<svg xmlns="http://www.w3.org/2000/svg" xml:space="preserve" width="2415px" height="512px" version="1.1" shape-rendering="geometricPrecision" text-rendering="geometricPrecision" image-rendering="optimizeQuality" fill-rule="evenodd" clip-rule="evenodd"
viewBox="0 0 1547.62 328.57"
 xmlns:xlink="http://www.w3.org/1999/xlink"
 xmlns:xodm="http://www.corel.com/coreldraw/odm/2003">
 <g id="Слой_x0020_1">
  <metadata id="CorelCorpID_0Corel-Layer"/>
  <g id="_2724019602592">
   <path fill="white" fill-rule="nonzero" d="M1209.59 64.39c22.11,0 34.82,11.82 28.69,34.7l-7.15 26.67c8.57,-2.33 20.99,-9.58 24.31,-21.13 6.86,1.17 11.6,7.78 10.95,12.33 -1.84,12.89 -26.44,18.57 -38.35,20.36l-18.92 70.61c-4.97,18.54 -19.17,32.49 -24.34,32.49 4.88,-18.2 12.43,-65.78 9.56,-81.46 -1.44,-7.89 -2.98,-7.78 -5.02,-0.2l-16 59.73 0 0 -5.71 21.32c-3.15,11.51 -3.92,20.24 -2.67,26.33 5.72,27.96 80.58,-29.71 85.02,-46.43l16.94 -63.22c1.43,-5.33 4.32,-13.51 -0.32,-17.91 -2.19,-2.08 -3.32,-2.31 1.8,-5.27 5.33,-3.07 15.36,-4.34 19.08,-4.34 22.11,0 34.82,11.81 28.69,34.69l-11.86 44.27c-4.96,18.54 -19.16,32.49 -24.33,32.49 4.87,-18.2 8.09,-49.57 5.21,-65.25 -1.44,-7.89 -2.98,-7.79 -5.02,-0.2l-11.66 43.52 0 0 -5.71 21.32c-3.14,11.51 -3.91,20.24 -2.67,26.33 5.73,27.96 71.87,-29.71 76.31,-46.43l33.35 -124.45c1.43,-5.33 4.32,-13.51 -0.32,-17.9 -2.19,-2.08 -3.32,-2.31 1.79,-5.27 5.33,-3.07 15.36,-4.35 19.08,-4.35 22.12,0 34.83,11.82 28.7,34.69l-28.27 105.5c-4.96,18.54 -19.16,32.49 -24.33,32.49 4.87,-18.2 12.43,-65.78 9.56,-81.46 -1.45,-7.89 -2.99,-7.78 -5.02,-0.2l-21.72 81.05c-3.14,11.51 -3.91,20.24 -2.66,26.33 5.72,27.96 70.82,-29.71 75.26,-46.43l0 0c1.52,-16.96 6.67,-34.18 12.76,-46.75 13.04,-26.89 33.18,-43.94 63.56,-43.94 18.13,0 46.98,5.81 49.29,27.3 3.54,32.84 -49.57,58.93 -72.12,69.49 -0.37,10.63 0.78,20.33 3.54,27.83 0.36,0.96 -27.74,1.93 -23.15,-55.58 1.65,-20.61 2.35,-32.99 -0.76,-28.97 -0.88,1.59 -1.68,3.14 -2.41,4.64 -10.38,21.4 -17.85,56.62 -9.25,79.91 3.26,8.84 7.8,14.76 13.14,18.32 11.35,7.59 25.73,-1.06 35.46,-7.75 14.2,-9.76 26.09,-23.77 30.16,-36.33 1.12,-3.56 16.55,-3 15.44,0.51 -11.66,35.95 -64.37,67.98 -97.6,45.78 -6.07,-4.06 -11.15,-10.52 -14.62,-19.94 -1.46,-3.94 -2.46,-8.18 -3.09,-12.63 -16.63,19.01 -44.96,35.69 -63.96,38.35 -12.05,1.69 -26.82,0.79 -29.74,-13.49 -0.91,-4.42 -0.82,-10.1 0.4,-17.09 -17.08,15.61 -40.76,28.29 -57.12,30.58 -12.05,1.69 -26.82,0.79 -29.75,-13.49 -1.01,-4.97 -0.77,-11.52 0.91,-19.73 -19.79,16.8 -49.06,30.81 -66.33,33.22 -12.05,1.69 -26.83,0.79 -29.75,-13.49 -1.3,-6.37 -0.54,-15.35 2.67,-27.08l5.27 -19.67 20.44 -76.29c-7.14,0.8 -13.87,9.13 -17.47,16.3 -3.58,-1.41 -10.63,-12.44 -6.32,-17.63 3.57,-4.29 13.57,-8.64 26.82,-9.97l10.77 -40.2c1.43,-5.33 4.32,-13.51 -0.32,-17.91 -2.19,-2.07 -3.32,-2.31 1.8,-5.27 5.32,-3.07 15.36,-4.35 19.08,-4.35zm-65.56 242.7c4.88,2.87 -60.32,2.5 -81.99,-86.96 -0.39,-1.63 -0.76,-3.3 -1.12,-4.99 -5.09,5.82 -9.77,11.11 -13.87,15.55 -13.01,14.1 -33.84,30.66 -55.15,40.43 -19.99,9.16 -50.24,16.23 -69.95,3.05 -6.08,-4.06 -11.16,-10.52 -14.63,-19.94 -8.81,-23.87 -1.32,-59.31 9.32,-81.27 13.04,-26.89 33.18,-43.94 63.57,-43.94 18.12,0 46.97,5.81 49.28,27.3 3.54,32.85 -49.57,58.93 -72.12,69.49 -0.37,10.63 0.78,20.33 3.55,27.83 0.35,0.96 -27.75,1.93 -23.15,-55.58 1.65,-20.61 2.34,-32.99 -0.77,-28.97 -0.88,1.59 -1.68,3.14 -2.41,4.64 -10.37,21.4 -17.85,56.62 -9.25,79.91 3.26,8.84 7.81,14.76 13.14,18.32 9.35,6.25 29.05,0.39 38.24,-3.82 20.29,-9.3 40.29,-25.26 52.88,-38.9 6.1,-6.61 16.14,-18.75 28.17,-32.63 -1.55,-10.29 -3.04,-20.91 -5.39,-30.96 -5.81,-24.84 -14.72,-43.86 -47.22,-48.45 -7.26,-1.02 -1.52,-4.09 5.8,-5.35 56.66,-9.74 77.35,9.96 88.11,40.49 21.78,-20.87 43.54,-36.59 58.07,-33.09 3.89,0.94 4.51,2.65 1.38,3.81 -15.47,5.79 -35.42,23.93 -55,44.49 1.43,5.78 2.69,11.79 3.9,17.94 4.35,22.01 6.63,39.92 18.93,57.63 0.51,0.51 -0.2,0.71 -0.85,0.67 -32.15,-2.36 -36.28,-54.73 -47.83,-76.99 -5.23,-10.09 -11.69,-17.33 -9.62,-8.87 5.19,21.22 6.96,41.08 12.01,61.72 6.62,27 16.9,44.15 27.24,57.29 10.22,12.98 22.05,21.54 36.73,30.15zm371.26 -167.02c-13.65,8.19 -24.19,24.32 -31.07,42.47 -3.95,10.43 -6.63,21.49 -7.97,32.08 18.95,-10.57 83.29,-54.45 39.04,-74.55zm-184.29 -64.64c8.89,6.9 8.89,18.95 0,27.21 -10.97,10.21 -32.31,12.04 -43.28,3.53 -8.89,-6.9 -8.89,-18.95 0,-27.22 10.97,-10.2 32.31,-12.04 43.28,-3.52zm-333.67 64.64c-13.65,8.19 -24.19,24.32 -31.07,42.47 -3.95,10.43 -6.63,21.49 -7.97,32.08 18.95,-10.57 83.29,-54.45 39.04,-74.55zm-286.35 -57.77c12.98,-27.1 42.08,-34.02 76.95,-33.3 39.48,0.81 200.26,24.27 216.73,-22.62 2.93,-8.35 -0.44,-17.62 -10.6,-20.97 -7.92,-6.26 39.12,-13.81 37.53,20.04 -1.21,25.65 -39.25,38.68 -77.9,43.02 13.85,1.88 90.51,3.84 92.93,-41.5 -0.47,-1.73 6.46,2.29 10.13,8.7 7.1,12.44 -2.92,38.93 -76.07,44.25 -32.03,2.08 -69.5,-0.77 -106.68,-6.42 4.69,2.76 29.85,21.76 19.27,61.23l-39.34 146.82c-1.09,4.15 -8.18,-20.91 -3.98,-53.1 3.06,-23.44 9.82,-57.69 7.12,-76.43 -1.03,-7.15 -1.61,-8.83 -3.99,0.02l-36.08 134.64c-2.13,7.97 -5.45,16.17 -15.78,22.86 53.62,-8.92 81.26,-1.44 96.05,2.51 1.83,0.49 9.71,2.45 3.58,4.89 -5.47,2.17 -10.29,0.6 -15.64,-0.82 -14.3,-3.82 -43.36,-11.79 -119.73,9.63 -15.07,4.23 -43,4.25 -13.15,-3.75 17.2,-5.38 40.81,-14.18 46.01,-33.61l47.73 -178.09c2.18,-8.16 8.04,-40.17 -15.55,-41.67 -11.95,-0.76 -32.04,-0.5 -48.02,3.24 -22.6,5.3 -35.79,18.93 -38.48,36.61 -0.95,6.83 -40.04,-11.57 -33.04,-26.18z"/>
   <path fill="white" fill-rule="nonzero" d="M181.76 287.48c22.49,-32.51 -5.72,-59.27 -34.16,-76.98 -0.01,11.33 -11.83,18.54 -24.19,18.54 -2.07,0 -1.61,-1.28 -0.94,-2.1 7.9,-9.83 8.19,-26.06 -6.92,-33.74 -17.31,-8.78 -34.58,-18.26 -47.81,-30.87 -12.76,-12.17 -20.78,-24.81 -24.27,-37.07 -3.44,-12.1 -2.47,-23.87 2.72,-34.47 5.24,-10.69 14.83,-20.22 28.56,-27.77 20.37,-11.2 49.79,-18.06 87.72,-18.06 44.76,0 74.95,13.3 89.58,30.29 5.5,6.38 8.84,13.31 9.93,20.2 1.1,6.91 -0.04,13.82 -3.49,20.17 -8.58,15.77 -44.12,30.6 -62.37,26.66 -2,-0.43 -1.37,-1.33 -0.81,-1.98 11.63,-13.49 16.59,-25.78 16.78,-36.47 0.1,-5.74 -1.2,-11.05 -3.59,-15.86 -2.37,-4.74 -5.79,-8.94 -9.96,-12.55 -10.48,-9.03 -25.04,-14.2 -38.86,-14.44 -13.66,-0.24 -28.04,3.82 -40.09,10.72 -9.16,5.24 -16.64,12.02 -21.31,19.81 -4.7,7.84 -6.51,16.69 -4.26,26 1.78,7.39 6.12,15.05 13.6,22.7 8.17,8.35 18.16,15.08 29.11,21.07 -0.82,-12.61 12.69,-19.91 23.81,-19.59 1.7,0.05 1.63,1.24 0.99,2.07 -7.73,9.98 -7.72,25.58 7.53,32.98l0.01 0c19.68,8.8 39.84,17.8 57.15,30.86 34.43,25.97 29.45,65.92 2.57,90.72 -36.86,33.99 -127.36,33.53 -171.93,19.54 -16.85,-5.3 -30.89,-13.05 -40.8,-23.22 -9.46,-9.69 -14.78,-21 -15.85,-32.15 -0.62,-6.41 0.15,-12.78 2.34,-18.75 8.97,-24.48 37.11,-34.62 61.07,-36.43 6.15,-0.47 16.96,-1.78 11.38,3.41 -9.59,8.9 -15.61,19.03 -18.23,29.28 -2.62,10.24 -1.87,20.54 2.06,29.84 10.76,25.43 35.64,31.86 60.72,34.1 -9.72,3.08 -31.86,3.64 -50.15,-5.06 -13.01,-6.19 -23.52,-16.55 -28.51,-28.36 -2.38,-5.63 -3.65,-11.59 -3.77,-17.66 -10.7,17.61 -5.55,41.32 19.73,56.24 4.13,1.89 8.52,3.56 13.13,5.01 40.69,12.78 115.62,12.41 145.79,-23.75 20.5,-24.58 21.38,-59.83 -6.37,-80.76 -16.56,-12.5 -36.19,-21.27 -55.37,-29.84 -14.95,-6.68 -29.64,-13.24 -42.59,-21.34l0.01 0.01c15.85,34.07 75.73,40.61 89.52,85.22 0.19,0.61 0.38,1.23 0.54,1.85l0.02 0.09 0 -0.01c0.76,2.97 1.11,6.07 0.97,9.3 -0.54,12.48 -9.31,26.92 -20.74,32.6zm346.7 -212.05c8.89,6.9 8.89,18.95 0,27.21 -10.97,10.21 -32.31,12.04 -43.28,3.53 -8.89,-6.9 -8.89,-18.95 0,-27.22 10.97,-10.2 32.31,-12.04 43.28,-3.52zm114.06 28.82c6.86,1.41 11.6,8.18 10.95,12.7 -1.99,13.85 -30.46,18.4 -40.92,19.34l-19.19 71.64c-4.97,18.54 -19.17,32.49 -24.34,32.49 4.88,-18.2 12.43,-65.78 9.56,-81.46 -1.44,-7.89 -2.99,-7.78 -5.02,-0.2l-16 59.73 0 0 -5.71 21.32c-3.15,11.51 -3.92,20.24 -2.67,26.33 5.72,27.96 74.11,-29.7 78.56,-46.42 1.51,-16.87 6.6,-34.07 12.76,-46.76 8.79,-18.14 22.12,-33.44 39.76,-39.94 6.99,-2.58 14.9,-4 23.8,-4 18.13,0 46.97,5.81 49.29,27.3 3.54,32.85 -49.58,58.93 -72.12,69.49 -0.37,10.63 0.77,20.33 3.54,27.83 0.35,0.96 -27.74,1.93 -23.15,-55.58 1.65,-20.61 2.35,-32.99 -0.76,-28.97 -0.88,1.59 -1.69,3.14 -2.41,4.64 -10.38,21.4 -17.85,56.62 -9.26,79.91 3.27,8.84 7.81,14.76 13.14,18.32 11.36,7.59 25.74,-1.06 35.47,-7.75 14.2,-9.76 26.08,-23.77 30.16,-36.33 1.12,-3.56 16.55,-3 15.44,0.51 -11.66,35.95 -64.37,67.98 -97.6,45.78 -6.07,-4.06 -11.15,-10.52 -14.63,-19.94 -1.51,-4.09 -2.54,-8.53 -3.16,-13.18 -17.5,19.24 -47.99,36.22 -67.17,38.9 -12.06,1.69 -26.83,0.79 -29.75,-13.49 -0.98,-4.76 -0.79,-10.98 0.7,-18.72 -18.7,16.35 -45.64,29.84 -62.56,32.21 -12.05,1.69 -26.83,0.79 -29.75,-13.49 -0.87,-4.27 -0.82,-9.72 0.29,-16.39 -16.43,15.29 -38.88,27.63 -54.99,29.88 -12.06,1.69 -26.83,0.79 -29.75,-13.49 -0.87,-4.27 -0.82,-9.71 0.28,-16.37 -16.46,15.31 -38.94,27.62 -54.98,29.86 -12.06,1.69 -26.83,0.79 -29.75,-13.49 -1.3,-6.37 -0.48,-15.33 2.66,-27.08l22.22 -82.89c5.42,-20.22 -56.34,14.32 -40.02,-1.88 13.01,-12.93 40.81,-24.97 62.68,-25.56 17.6,-0.48 28.79,6.44 27.91,26.28 -0.12,2.67 -0.55,5.45 -1.32,8.33l-11.87 44.27c-4.96,18.54 -19.16,32.49 -24.33,32.49 4.88,-18.2 8.09,-49.57 5.22,-65.25 -1.37,-7.49 -2.88,-8.19 -4.92,-0.57l-17.47 65.21c-3.09,11.52 -3.92,20.24 -2.67,26.33 5.72,27.95 70.66,-32.9 74.29,-46.41l16.95 -63.24c1.43,-5.33 4.32,-13.51 -0.32,-17.91 -2.19,-2.08 -3.32,-2.31 1.8,-5.27 5.32,-3.07 15.36,-4.34 19.07,-4.34 22.12,0 34.83,11.81 28.7,34.69l-11.86 44.27c-4.97,18.54 -19.17,32.49 -24.34,32.49 4.88,-18.2 8.1,-49.57 5.22,-65.25 -1.44,-7.89 -2.99,-7.79 -5.02,-0.2l-11.66 43.52 0 0 -5.71 21.32c-3.15,11.51 -3.92,20.24 -2.67,26.33 5.72,27.96 69.86,-29.71 74.3,-46.43l16.94 -63.22c1.43,-5.33 4.32,-13.51 -0.32,-17.91 -2.19,-2.08 -3.32,-2.31 1.8,-5.27 5.32,-3.07 15.36,-4.34 19.08,-4.34 22.11,0 34.82,11.81 28.69,34.69l-11.86 44.27c-4.97,18.54 -19.17,32.49 -24.34,32.49 4.88,-18.2 8.1,-49.57 5.22,-65.25 -1.44,-7.89 -2.99,-7.79 -5.02,-0.2l-11.66 43.52 0 0 -5.71 21.32c-3.15,11.51 -3.92,20.24 -2.67,26.33 5.72,27.96 77.02,-29.71 81.46,-46.43l21.28 -79.44c-7.14,0.56 -13.87,8.66 -17.48,15.71 -3.58,-1.52 -10.63,-12.79 -6.31,-17.84 3.57,-4.16 13.55,-8.17 26.79,-9.06l9.96 -37.16c1.43,-5.33 4.32,-13.51 -0.32,-17.91 -2.19,-2.07 -3.32,-2.31 1.8,-5.27 5.32,-3.07 15.36,-4.35 19.07,-4.35 22.12,0 34.83,11.82 28.7,34.7l-6.96 25.98c8.4,-1.1 23.27,-8.12 26.96,-20.82zm78.67 35.82c-13.65,8.19 -24.19,24.32 -31.07,42.47 -3.95,10.43 -6.64,21.49 -7.98,32.08 18.96,-10.57 83.29,-54.45 39.05,-74.55z"/>
  </g>
 </g>
</svg>
