<svg width="16" height="18" viewBox="0 0 16 18" fill="none" xmlns="http://www.w3.org/2000/svg"><path fill-rule="evenodd" clip-rule="evenodd" d="M3 0a1 1 0 00-1 1v1.17a3.001 3.001 0 000 5.66V17a1 1 0 102 0V7.83a3.001 3.001 0 000-5.66V1a1 1 0 00-1-1zm1 5a1 1 0 11-2 0 1 1 0 012 0z" fill="#241E0C"/><path fill-rule="evenodd" clip-rule="evenodd" d="M13 0a1 1 0 00-1 1v8.17a3.001 3.001 0 000 5.66V17a1 1 0 102 0v-2.17a3.001 3.001 0 000-5.66V1a1 1 0 00-1-1zm1 12a1 1 0 11-2 0 1 1 0 012 0z" fill="#241E0C"/></svg>