<svg width="12" height="12" viewBox="0 0 12 12" fill="none" xmlns="http://www.w3.org/2000/svg"><path d="M9.17743 11.4688L9.17729 11.4687L6.95007 10.0592C6.36653 9.68988 5.63418 9.68918 5.04998 10.0574L2.82347 11.4609L2.82257 11.4614C2.77873 11.4892 2.74366 11.4942 2.71648 11.4923C2.68622 11.4902 2.65142 11.4783 2.61807 11.4529C2.5523 11.4029 2.50802 11.3142 2.53341 11.2L3.11824 8.57422C3.27038 7.89114 3.05244 7.16737 2.53552 6.6987L0.579121 4.92494L0.578948 4.92479C0.50581 4.85854 0.482037 4.76084 0.512882 4.66193C0.543473 4.56384 0.609355 4.51594 0.684429 4.5097L0.684429 4.5097L0.687192 4.50946L3.27639 4.27948C3.96533 4.21829 4.54834 3.76223 4.80898 3.12012L5.8182 0.633765L5.8182 0.633766L5.81896 0.631872C5.8895 0.456043 6.1105 0.456043 6.18103 0.631873L6.18165 0.633402L7.19119 3.1261C7.45153 3.76893 8.03486 4.22564 8.72435 4.28689L11.3128 4.51679L11.3128 4.5168L11.3156 4.51703C11.3906 4.52328 11.4565 4.57118 11.4871 4.66927C11.518 4.76818 11.4942 4.86588 11.4211 4.93213L11.4209 4.93228L9.46449 6.70604C8.94757 7.1747 8.72963 7.89848 8.88177 8.58156L9.46659 11.2073C9.49198 11.3216 9.4477 11.4102 9.38193 11.4603C9.34858 11.4857 9.31378 11.4976 9.28353 11.4997C9.25634 11.5015 9.22127 11.4965 9.17743 11.4688Z" stroke="#241E0C"/></svg>