<svg width="20" height="12" viewBox="0 0 20 12" fill="none" xmlns="http://www.w3.org/2000/svg"><path d="M5.31659 10.4804C5.73759 10.215 6.26213 10.2155 6.68269 10.4817L8.90991 11.8912C9.44281 12.2287 10.0949 11.7298 9.95468 11.0988L9.36981 8.47286C9.25531 7.95877 9.42141 7.42 9.80033 7.07646L11.7567 5.3027C12.2265 4.87717 11.9741 4.07011 11.357 4.01875L8.76858 3.78885C8.27733 3.74521 7.84891 3.41814 7.65462 2.93841L6.64509 0.445713C6.40669 -0.148571 5.59331 -0.148571 5.35491 0.445713L4.34569 2.93207C4.15119 3.41125 3.72302 3.73785 3.23215 3.78144L0.642956 4.01142C0.025914 4.06278 -0.226512 4.86983 0.243281 5.29537L2.19968 7.06913C2.57859 7.41267 2.7447 7.95143 2.63019 8.46552L2.04532 11.0915C1.90509 11.7224 2.55719 12.2213 3.09009 11.8838L5.31659 10.4804Z" fill="#A7A59E"/><rect x="14" y="6" width="6" height="2" fill="#A7A59E"/><rect x="16" y="4" width="2" height="6" fill="#A7A59E"/></svg>