<svg width="12" height="12" viewBox="0 0 12 12" fill="none" xmlns="http://www.w3.org/2000/svg"><path d="M5.317 10.48a1.27 1.27 0 011.366.002l2.227 1.41c.533.337 1.185-.162 1.045-.793L9.37 8.473a1.462 1.462 0 01.43-1.397l1.957-1.773c.47-.426.217-1.233-.4-1.284l-2.588-.23a1.341 1.341 0 01-1.114-.85L6.645.445a.69.69 0 00-1.29 0l-1.01 2.486c-.194.48-.622.806-1.113.85l-2.589.23c-.617.05-.87.858-.4 1.283L2.2 7.07c.379.344.545.882.43 1.397l-.585 2.626c-.14.63.512 1.13 1.045.792l2.227-1.404z" fill="#241E0C"/></svg>